<?xml version="1.0" standalone="no"?>
<!DOCTYPE svg PUBLIC "-//W3C//DTD SVG 20010904//EN"
 "http://www.w3.org/TR/2001/REC-SVG-20010904/DTD/svg10.dtd">
<svg version="1.0" xmlns="http://www.w3.org/2000/svg"
 width="578.000000pt" height="578.000000pt" viewBox="0 0 578.000000 578.000000"
 preserveAspectRatio="xMidYMid meet">

<g transform="translate(0.000000,578.000000) scale(0.100000,-0.100000)"
fill="#000000" stroke="none">
<path style="fill:#044885;" d="M2665 5639 c-796 -65 -1521 -465 -2001 -1104 -296 -393 -466 -813
-540 -1330 -23 -166 -24 -516 0 -680 49 -350 127 -609 270 -895 267 -539 702
-979 1231 -1247 324 -164 639 -256 1010 -294 150 -15 490 -7 635 16 476 73
913 255 1286 536 118 89 299 252 379 344 33 37 65 73 70 79 6 6 33 40 61 76
484 617 685 1389 563 2160 -119 754 -545 1427 -1179 1862 -521 358 -1160 528
-1785 477z m575 -103 c336 -53 603 -137 865 -271 694 -357 1199 -990 1390
-1747 145 -572 95 -1181 -141 -1726 -341 -783 -1039 -1365 -1869 -1556 -183
-42 -300 -56 -511 -63 -205 -6 -377 4 -544 33 -625 107 -1202 440 -1611 930
-879 1053 -827 2601 121 3588 455 474 1035 755 1703 826 116 12 484 4 597 -14z"/>
<path style="fill:#044885;" d="M2860 5413 c0 -4 10 -13 23 -18 14 -6 43 -50 80 -124 58 -112 59
-114 50 -170 -7 -51 -10 -56 -35 -59 -16 -2 -28 -8 -28 -13 0 -5 35 -9 78 -8
56 0 71 3 55 9 -20 8 -23 16 -23 71 0 59 3 66 66 166 56 87 72 105 98 111 l31
6 -30 7 c-16 4 -48 7 -70 8 -32 0 -36 -2 -22 -10 9 -5 17 -16 17 -23 0 -15
-89 -156 -99 -156 -6 0 -91 163 -91 175 0 3 10 10 23 15 17 7 9 9 -35 9 -31 1
-63 4 -72 7 -9 3 -16 2 -16 -3z"/>
<path style="fill:#044885;" d="M2520 5387 c-34 -8 -39 -12 -22 -15 33 -5 47 -36 67 -140 18 -95 16
-152 -7 -179 -18 -23 -88 -53 -121 -53 -40 0 -84 28 -101 65 -11 22 -56 217
-56 240 0 2 8 11 17 20 16 16 14 17 -38 10 -59 -8 -100 -24 -63 -25 32 0 39
-15 59 -120 23 -125 40 -165 80 -190 62 -38 188 -18 239 38 26 30 31 102 12
201 -22 114 -21 136 7 149 l22 11 -25 -1 c-14 0 -45 -5 -70 -11z"/>
<path style="fill:#044885;" d="M3375 5189 c-55 -88 -110 -166 -123 -173 -22 -12 -21 -13 29 -24 51
-12 80 -10 40 3 -29 9 -27 21 18 91 l39 62 53 -14 c29 -8 56 -19 61 -26 4 -7
8 -43 8 -80 l0 -67 -32 -3 c-28 -3 -22 -6 37 -21 39 -9 122 -40 185 -67 63
-27 122 -50 130 -50 15 1 82 50 68 50 -4 0 -22 -7 -41 -16 -31 -15 -35 -14
-90 10 -31 14 -57 30 -57 36 0 14 111 281 124 298 5 8 20 11 35 8 14 -3 -1 8
-34 24 -65 31 -102 40 -70 16 17 -12 18 -19 8 -53 -11 -40 -108 -272 -117
-280 -9 -9 -52 6 -74 24 -18 16 -23 41 -38 208 -16 178 -23 205 -49 204 -5 0
-55 -72 -110 -160z m105 64 c0 -16 3 -46 7 -67 l6 -39 -39 7 c-21 4 -43 11
-48 16 -10 10 50 110 65 110 5 0 9 -12 9 -27z"/>
<path style="fill:#044885;" d="M1923 5229 c-53 -12 -128 -78 -143 -125 -19 -56 -8 -145 22 -192 38
-57 103 -86 171 -78 29 4 59 11 67 16 10 6 3 8 -21 4 -55 -9 -103 12 -149 63
-46 53 -64 107 -57 176 7 79 72 126 159 114 122 -16 201 -199 132 -303 l-26
-39 36 34 c45 43 60 89 53 158 -13 126 -119 200 -244 172z"/>
<path style="fill:#044885;" d="M4070 5114 c0 -2 5 -13 12 -23 9 -16 -1 -41 -69 -162 -64 -115 -85
-144 -101 -143 -28 1 -20 -9 32 -40 48 -28 68 -34 48 -14 -21 21 -14 39 66
178 71 124 80 135 105 133 15 -1 27 0 27 1 0 2 -27 20 -60 39 -33 20 -60 34
-60 31z"/>
<path style="fill:#044885;" d="M1543 5032 c-51 -36 -74 -65 -32 -40 18 12 24 9 52 -24 18 -20 40
-50 49 -66 l18 -30 -90 -62 c-50 -33 -94 -59 -99 -56 -4 3 -25 31 -47 61 -33
48 -36 59 -26 75 20 33 14 32 -40 -7 -49 -35 -50 -38 -27 -43 16 -4 48 -40
101 -115 102 -145 105 -152 90 -175 -21 -34 -13 -32 48 11 33 23 60 43 60 45
0 2 -12 1 -28 -2 -24 -5 -31 1 -70 57 -35 51 -41 64 -30 75 20 19 161 114 169
114 10 0 89 -115 89 -128 0 -5 -9 -17 -20 -27 -41 -37 -10 -25 52 20 34 26 54
44 43 41 -11 -3 -25 -2 -31 2 -6 4 -50 63 -98 132 -72 103 -87 130 -82 153 3
15 4 27 3 27 -1 -1 -25 -18 -54 -38z"/>
<path style="fill:#044885;" d="M4382 4863 c-19 -7 -42 -58 -42 -92 0 -16 7 -57 16 -90 20 -81 16
-119 -18 -144 -24 -18 -30 -18 -58 -7 -44 18 -63 51 -58 100 4 49 -2 50 -26 5
l-19 -34 46 -44 c49 -48 97 -64 140 -48 56 22 69 79 42 181 -27 100 -13 160
38 160 32 0 70 -45 76 -90 l6 -44 18 27 c17 27 17 28 -10 63 -43 54 -102 77
-151 57z"/>
<path style="fill:#044885;" d="M2630 4846 c-306 -40 -595 -149 -856 -325 -456 -308 -754 -765 -854
-1311 -57 -310 -31 -666 72 -979 212 -643 752 -1143 1408 -1305 165 -40 301
-56 485 -56 317 0 577 58 850 189 599 288 999 814 1116 1467 29 161 32 478 6
638 -95 591 -427 1090 -933 1404 -208 129 -465 225 -714 267 -130 22 -445 28
-580 11z m-586 -998 c13 -19 16 -60 17 -243 1 -212 1 -219 17 -185 13 28 17
67 17 195 0 159 0 159 24 172 29 14 57 3 66 -27 4 -12 7 -96 8 -188 2 -161 1
-169 -23 -212 -21 -37 -66 -79 -99 -92 -4 -2 -11 -46 -15 -99 l-6 -95 44 -31
c78 -55 97 -115 116 -372 15 -195 13 -335 -4 -376 -12 -29 -20 -35 -45 -35
-55 0 -61 22 -61 225 0 186 -13 378 -29 430 -6 19 -9 -129 -8 -407 2 -436 2
-437 -20 -459 -29 -30 -67 -20 -82 22 -7 21 -11 173 -11 453 0 242 -4 415 -9
406 -18 -30 -33 -171 -41 -380 -4 -118 -11 -223 -15 -233 -4 -10 -16 -22 -27
-28 -17 -9 -25 -7 -42 10 -20 20 -21 33 -24 234 -5 339 23 462 118 522 l38 24
-2 86 -1 87 -39 13 c-103 36 -125 87 -125 290 0 162 10 205 52 220 50 17 57
-6 57 -185 0 -163 10 -220 38 -220 15 0 17 24 20 227 2 183 5 231 17 250 20
30 59 30 79 1z m-450 -4 c11 -11 16 -37 17 -87 1 -40 4 -139 8 -222 6 -139 7
-148 21 -125 12 19 15 61 15 183 0 145 2 160 19 173 72 52 107 -48 88 -248
-11 -120 -47 -200 -104 -237 l-38 -24 0 -97 0 -96 46 -44 c79 -75 96 -157 98
-472 l1 -227 -26 -26 c-54 -55 -79 -7 -79 153 0 133 -16 382 -27 427 -5 17
-10 -157 -13 -386 -5 -451 -5 -449 -60 -449 -55 0 -55 -3 -55 457 0 232 -3
423 -7 423 -8 0 -21 -46 -38 -135 -7 -33 -15 -153 -19 -266 -5 -186 -8 -209
-25 -228 -26 -29 -66 -24 -83 9 -18 35 -17 328 2 456 14 101 39 183 69 229 9
13 36 36 61 50 l45 27 0 91 0 92 -59 27 c-95 44 -131 130 -131 309 0 130 15
168 66 169 40 0 47 -23 48 -163 1 -108 5 -138 20 -167 18 -34 33 -50 49 -50 4
0 4 99 0 220 -7 233 -5 241 42 260 29 12 32 12 49 -6z m2592 -48 c14 -32 38
-63 57 -76 70 -48 92 -111 62 -174 -10 -22 -56 -70 -106 -114 -49 -42 -89 -79
-89 -82 0 -3 76 -34 169 -69 93 -34 177 -71 187 -82 16 -18 16 -20 -1 -39 -26
-28 -80 -26 -220 11 -79 20 -121 27 -128 20 -15 -15 -22 -157 -8 -165 6 -4 63
-16 128 -27 134 -23 153 -31 153 -63 0 -43 -21 -50 -134 -43 -155 9 -149 13
-144 -100 2 -63 7 -96 16 -102 7 -4 54 -9 104 -10 101 -2 141 -15 146 -47 6
-40 -23 -49 -147 -49 l-116 0 0 -95 0 -94 35 -8 c19 -4 89 -10 155 -14 105 -6
122 -10 141 -30 26 -25 22 -60 -7 -69 -10 -4 -79 -2 -151 4 -200 15 -477 22
-533 14 -44 -7 -52 -12 -67 -43 -13 -24 -18 -59 -18 -113 0 -43 -5 -87 -10
-98 -14 -25 -52 -24 -75 1 -17 19 -18 39 -11 333 11 501 34 763 74 832 10 16
47 49 82 72 129 85 124 76 80 126 -50 57 -75 62 -155 33 -79 -30 -102 -32
-127 -9 -30 27 -21 41 49 80 37 21 171 107 298 190 159 106 239 153 258 153
24 0 31 -7 53 -54z m-941 -21 c14 -13 26 -31 26 -40 1 -8 3 -19 4 -25 1 -5 3
-21 4 -35 l1 -26 114 2 c62 1 118 -1 125 -5 15 -9 14 -59 -1 -74 -7 -7 -30
-12 -52 -13 -58 0 -195 -24 -206 -35 -14 -14 -42 -156 -32 -166 5 -5 60 -13
123 -18 137 -12 162 -26 167 -88 2 -22 -14 -159 -35 -304 -36 -258 -37 -269
-38 -578 0 -173 -4 -321 -8 -327 -11 -18 -48 -16 -76 3 l-23 16 4 304 3 303
-36 -35 c-21 -20 -48 -57 -63 -83 -30 -56 -115 -277 -145 -376 -21 -71 -44
-115 -62 -115 -5 0 -18 9 -29 20 -25 25 -26 75 -1 137 150 384 196 478 277
563 53 57 89 114 80 129 -5 8 -92 -7 -166 -29 -59 -17 -127 -13 -150 10 -30
30 -30 63 5 235 67 328 85 442 85 541 0 114 5 123 73 133 4 0 19 -10 32 -24z
m-665 -10 c46 -42 55 -73 54 -187 -1 -147 -16 -180 -91 -203 -71 -23 -194 -16
-232 12 -53 40 -65 67 -69 163 -4 82 -2 94 23 146 38 78 77 96 201 92 75 -3
96 -7 114 -23z m-85 -489 c33 -7 70 -18 83 -25 65 -35 85 -163 37 -234 -32
-47 -65 -64 -162 -82 -88 -17 -107 -30 -98 -68 6 -21 16 -29 49 -37 75 -18
109 -42 138 -95 48 -91 62 -193 63 -451 0 -256 -3 -268 -59 -262 -46 5 -56 34
-56 173 0 141 -16 339 -31 409 -14 58 -48 92 -121 121 -67 27 -91 59 -96 133
-5 72 21 130 72 160 31 18 35 26 41 75 10 81 9 82 -72 79 -63 -3 -72 -1 -86
18 -32 46 3 78 100 90 89 11 132 11 198 -4z m42 -1666 c37 -22 51 -69 34 -113
-6 -16 -41 -57 -79 -93 l-67 -64 78 0 c75 0 77 0 77 -25 l0 -25 -120 0 -120 0
0 35 c0 31 9 44 71 102 78 74 93 95 84 122 -10 31 -38 35 -61 8 -22 -26 -79
-43 -90 -26 -10 17 17 69 45 84 38 21 110 18 148 -5z m301 4 c40 -28 56 -73
56 -159 0 -97 -19 -140 -71 -162 -65 -27 -126 1 -152 70 -31 80 1 236 51 257
36 14 91 11 116 -6z m322 1 c20 -10 33 -28 41 -53 16 -56 1 -83 -102 -177
l-44 -40 78 -3 c74 -3 77 -4 77 -27 l0 -25 -120 0 -120 0 0 36 c0 32 8 44 65
97 36 33 73 73 81 90 15 28 15 31 -6 51 l-21 21 -27 -31 c-19 -21 -35 -30 -54
-29 -36 2 -40 7 -32 40 14 56 118 84 184 50z m310 -160 l0 -165 -40 0 -40 0 0
126 0 126 -25 -16 c-38 -25 -55 -21 -55 14 0 40 57 79 118 79 l42 1 0 -165z"/>
<path style="fill:#044885;" d="M3993 3628 c-54 -28 -115 -60 -135 -71 -21 -10 -38 -23 -38 -27 0
-15 123 -100 144 -100 30 0 114 51 171 102 40 37 47 48 42 69 -9 37 -45 79
-68 79 -10 0 -63 -23 -116 -52z"/>
<path style="fill:#044885;" d="M3902 3243 c-81 -33 -156 -104 -166 -156 -4 -21 -4 -42 -1 -47 4 -6
58 -10 125 -10 104 0 119 2 124 18 4 15 10 180 7 210 -2 17 -17 15 -89 -15z"/>
<path style="fill:#044885;" d="M3722 2903 c-14 -26 -18 -161 -5 -174 21 -21 247 -38 259 -18 3 6 9
48 11 93 4 64 2 84 -9 94 -8 7 -64 15 -130 18 -109 7 -116 6 -126 -13z"/>
<path style="fill:#044885;" d="M3696 2592 c-2 -4 -7 -39 -11 -77 -9 -99 -6 -102 132 -115 62 -6 122
-8 133 -5 30 10 38 40 31 120 l-6 70 -65 6 c-95 10 -208 10 -214 1z"/>
<path style="fill:#044885;" d="M3191 3212 c-21 -21 -31 -44 -40 -93 -17 -101 -15 -118 15 -125 31
-8 153 2 187 15 21 8 27 20 37 79 21 117 -4 152 -113 152 -51 0 -62 -4 -86
-28z"/>
<path style="fill:#044885;" d="M2382 3664 c-19 -13 -22 -24 -22 -82 0 -91 15 -112 81 -112 37 0 54
5 70 21 19 19 21 30 17 96 -3 49 -10 78 -19 84 -23 14 -103 10 -127 -7z"/>
<path style="fill:#044885;" d="M2464 3115 c0 -36 5 -65 11 -65 25 1 65 52 65 84 0 22 -28 46 -54 46
-22 0 -23 -4 -22 -65z"/>
<path style="fill:#044885;" d="M2755 1557 c-10 -15 -15 -46 -15 -100 0 -86 11 -117 40 -117 34 0 50
146 23 216 -8 23 -32 24 -48 1z"/>
<path style="fill:#044885;" d="M1077 4652 c-53 -53 -97 -102 -97 -108 0 -6 12 -21 26 -35 25 -23 26
-23 15 -2 -6 12 -11 28 -11 35 1 16 128 153 136 145 3 -3 19 -90 35 -194 16
-103 32 -199 35 -212 5 -23 14 -16 120 90 63 62 114 118 114 124 -1 11 -56 75
-66 75 -3 0 1 -11 10 -25 29 -44 21 -66 -59 -145 -41 -41 -77 -72 -80 -69 -3
3 -11 48 -19 100 -8 52 -22 140 -30 196 -9 57 -16 107 -16 113 0 21 -19 7
-113 -88z"/>
<path style="fill:#044885;" d="M4580 4605 c-41 -19 -96 -69 -116 -107 -38 -74 -1 -184 88 -259 l50
-42 41 14 42 13 -50 6 c-71 8 -110 35 -135 92 -24 57 -20 103 15 158 30 47 52
65 109 91 58 25 101 20 146 -18 47 -39 63 -78 56 -136 l-5 -50 29 28 c20 19
27 32 20 40 -5 6 -22 35 -37 65 -50 96 -166 144 -253 105z"/>
<path style="fill:#044885;" d="M4963 4317 c8 -22 -2 -30 -133 -109 -151 -89 -155 -91 -175 -72 -25
26 -17 1 20 -56 31 -50 35 -53 35 -27 0 23 11 34 62 67 35 22 66 36 69 32 14
-14 109 -174 109 -182 0 -12 -114 -80 -133 -80 -9 0 -21 9 -27 21 -7 11 -14
18 -17 16 -6 -7 69 -137 80 -137 4 0 3 8 -2 19 -7 13 -7 23 2 33 14 19 266
168 282 168 6 0 17 -6 24 -12 18 -17 12 -4 -24 60 -16 28 -34 52 -38 52 -4 0
-3 -8 2 -18 14 -26 -2 -46 -64 -81 -30 -17 -57 -31 -59 -31 -3 0 -24 33 -47
73 -23 39 -49 82 -56 94 -14 21 -11 24 49 62 59 37 65 39 86 25 12 -8 22 -12
22 -9 0 12 -56 105 -64 105 -4 0 -6 -6 -3 -13z"/>
<path style="fill:#044885;" d="M751 4260 c-37 -60 -39 -71 -7 -41 l24 23 117 -68 c74 -43 112 -70
103 -74 -7 -4 -60 -17 -118 -29 -236 -48 -252 -53 -277 -90 -26 -38 -24 -48 4
-31 22 14 49 2 208 -92 76 -45 90 -58 93 -82 4 -28 5 -27 34 23 29 52 34 77 8
46 -7 -8 -18 -15 -25 -15 -12 0 -231 123 -248 140 -9 8 23 16 281 72 116 25
141 33 130 44 -7 7 -76 48 -153 92 -126 72 -140 83 -138 106 1 14 0 26 -2 26
-2 0 -17 -23 -34 -50z"/>
<path style="fill:#044885;" d="M5035 3820 c-48 -15 -103 -67 -115 -108 -13 -49 -12 -110 3 -145 11
-26 12 -23 12 36 0 53 4 69 26 98 56 72 198 108 262 66 96 -62 82 -195 -27
-262 -38 -23 -63 -30 -116 -33 -64 -4 -69 -3 -105 29 -30 26 -36 29 -27 12 7
-12 29 -35 49 -50 30 -23 48 -28 107 -31 65 -3 75 -1 119 27 87 56 111 159 61
260 -35 70 -86 104 -162 108 -32 1 -70 -2 -87 -7z"/>
<path style="fill:#044885;" d="M482 3702 c-23 -65 -42 -124 -41 -132 0 -8 4 -5 9 8 13 32 40 29 196
-28 76 -27 139 -50 141 -50 9 0 1 -55 -11 -85 -18 -43 -27 -43 -211 -12 -114
20 -131 25 -141 45 -14 29 -19 21 -29 -42 -3 -27 -9 -56 -12 -65 -3 -12 -1
-12 11 3 8 10 17 23 18 28 3 7 33 5 82 -2 l78 -13 -6 -31 c-4 -17 -12 -65 -18
-106 -6 -41 -13 -78 -17 -82 -7 -7 -129 14 -149 26 -6 4 -12 15 -13 24 -1 9
-7 -10 -14 -43 -14 -65 -12 -79 8 -51 12 17 21 16 172 -9 88 -15 163 -29 168
-32 4 -2 7 -14 8 -26 0 -21 1 -21 8 -2 5 11 11 45 15 75 5 42 4 49 -4 31 -10
-23 -13 -24 -87 -17 -43 4 -80 9 -82 12 -5 5 18 190 26 211 5 12 18 13 67 8
77 -9 96 -19 96 -51 0 -45 17 -16 24 40 3 30 31 127 62 216 31 88 55 162 53
163 -2 2 -21 11 -43 20 l-39 18 27 -32 c15 -17 26 -37 24 -43 -23 -80 -44
-126 -58 -126 -16 0 -122 34 -139 44 -5 3 0 31 12 61 17 47 24 55 46 56 23 0
22 2 -14 19 -49 22 -78 26 -51 7 17 -13 18 -15 0 -70 -10 -31 -23 -57 -30 -57
-11 0 -124 38 -132 45 -1 1 8 31 20 66 22 60 25 64 58 69 l35 5 -34 13 c-19 6
-37 12 -40 12 -4 0 -26 -53 -49 -118z"/>
<path style="fill:#044885;" d="M5124 3331 c-23 -10 -50 -32 -62 -48 -25 -36 -45 -110 -40 -149 4
-27 5 -26 12 13 18 91 79 141 187 150 134 13 216 -90 162 -204 -20 -42 -71
-78 -135 -94 -64 -15 -138 2 -178 43 -40 39 -38 18 1 -27 39 -44 62 -57 119
-66 128 -21 230 70 230 205 0 53 -44 132 -90 162 -56 37 -146 44 -206 15z"/>
<path style="fill:#044885;" d="M652 2959 c39 -29 68 -81 68 -121 0 -57 -39 -120 -90 -145 -86 -44
-206 -25 -253 38 -43 60 -28 169 28 199 33 18 32 30 -2 30 -34 0 -50 -10 -51
-30 -1 -8 -7 -38 -14 -67 -24 -106 35 -209 138 -239 102 -29 196 10 234 98 19
44 22 64 17 124 -6 87 -17 108 -58 123 -45 15 -48 13 -17 -10z"/>
<path style="fill:#044885;" d="M5049 2875 c-3 -11 -7 -70 -8 -131 l-2 -110 28 -14 c47 -24 49 -24
20 7 -26 28 -28 36 -25 94 l3 64 155 -3 c85 -2 163 -6 173 -8 11 -4 17 -16 18
-37 1 -31 1 -31 9 -7 4 14 8 52 9 85 0 49 -2 56 -11 40 -6 -11 -12 -22 -14
-24 -5 -6 -242 0 -294 8 -36 5 -45 10 -50 31 -6 23 -7 23 -11 5z"/>
<path style="fill:#044885;" d="M4472 1528 c-19 -19 -14 -31 26 -59 20 -15 108 -84 196 -153 145
-116 160 -125 172 -109 16 22 30 8 -181 173 -93 73 -175 139 -181 146 -14 17
-17 17 -32 2z"/>
<path style="fill:#044885;" d="M4620 1485 c0 -8 0 -18 0 -21 0 -3 25 -7 55 -9 30 -2 71 -9 91 -15
40 -14 40 -14 49 21 6 26 6 26 -62 32 -107 11 -133 9 -133 -8z"/>
<path style="fill:#044885;" d="M1216 1462 c-9 -16 -120 -35 -197 -35 -74 0 -76 0 -71 -23 4 -22 10
-24 56 -24 49 0 247 20 255 26 2 2 -2 17 -9 34 -12 30 -24 38 -34 22z"/>
<path style="fill:#044885;" d="M4357 1372 c-16 -17 -15 -20 28 -52 25 -19 45 -37 45 -42 0 -4 -14
-23 -31 -42 -29 -34 -32 -56 -6 -56 7 0 23 16 36 35 13 19 26 35 30 35 10 0
61 -97 80 -152 13 -38 23 -52 39 -55 29 -4 28 5 -8 79 -16 34 -28 63 -26 66 3
2 46 -29 96 -69 82 -64 93 -70 107 -57 13 14 8 21 -49 64 -86 65 -130 104
-121 105 4 1 26 2 48 3 33 1 41 5 43 24 3 21 0 22 -52 22 -42 0 -57 -4 -65
-17 -9 -17 -12 -16 -35 6 l-26 24 26 35 c20 26 24 36 14 45 -9 9 -18 4 -39
-20 -15 -18 -31 -33 -36 -33 -5 0 -25 16 -45 35 -35 34 -37 35 -53 17z"/>
<path style="fill:#044885;" d="M1294 1306 c-38 -83 -69 -256 -46 -256 4 0 17 -3 28 -6 21 -5 22 -2
26 88 5 84 19 136 55 198 2 3 -6 11 -17 18 -19 12 -23 9 -46 -42z"/>
<path style="fill:#044885;" d="M1060 1279 c-38 -11 -94 -18 -134 -17 -54 1 -71 -2 -81 -16 -11 -15
1 -30 96 -123 65 -63 107 -112 104 -120 -3 -7 -7 -19 -10 -26 -6 -14 41 -42
49 -29 20 33 55 192 42 192 -2 0 -11 2 -19 6 -10 3 -18 -8 -27 -40 -7 -26 -16
-46 -19 -46 -4 0 -38 32 -76 70 -75 75 -76 90 -10 90 17 0 65 5 108 12 77 11
84 17 71 52 -7 19 -10 19 -94 -5z"/>
<path style="fill:#044885;" d="M4139 926 c-35 -17 -53 -60 -38 -88 27 -50 71 -62 107 -28 56 53 -2
150 -69 116z"/>
<path style="fill:#044885;" d="M1624 892 c-46 -30 -31 -115 22 -125 29 -5 63 7 76 27 14 21 8 73
-10 89 -19 17 -68 22 -88 9z"/>
<path style="fill:#044885;" d="M3574 879 c-3 -6 3 -20 14 -32 18 -17 23 -18 37 -7 14 12 14 15 -1
31 -19 21 -39 24 -50 8z"/>
<path style="fill:#044885;" d="M3484 867 c-2 -7 2 -30 11 -50 8 -20 15 -39 15 -41 0 -3 -33 -15 -72
-27 -40 -12 -74 -23 -75 -23 -1 -1 16 -58 38 -126 41 -125 47 -184 23 -243 -6
-16 -2 -18 22 -15 28 3 29 5 32 59 2 31 -4 87 -13 124 -16 72 -14 85 15 85 13
0 23 -14 34 -47 20 -58 20 -83 1 -83 -20 0 -19 -29 0 -37 19 -7 55 24 55 46 0
14 -39 160 -45 169 -2 1 -21 -4 -45 -12 l-42 -14 -13 31 c-7 18 -12 33 -10 35
9 9 106 39 109 34 29 -50 106 -206 106 -216 0 -8 -15 -37 -34 -64 -33 -49 -33
-50 -12 -56 23 -7 62 31 72 72 4 12 8 22 10 22 2 0 20 -11 41 -25 21 -15 48
-25 63 -23 22 3 25 8 28 46 2 23 -1 42 -7 42 -5 0 -17 3 -26 6 -13 5 -15 2 -9
-20 8 -35 -14 -35 -49 2 -28 29 -28 37 -12 170 3 29 1 32 -24 32 -27 0 -27 0
-23 -60 2 -33 0 -60 -4 -60 -14 0 -78 136 -70 149 4 6 27 16 52 22 49 13 56
19 45 38 -7 11 -18 10 -60 -4 -28 -9 -55 -14 -61 -10 -5 3 -13 24 -16 46 -5
29 -11 39 -26 39 -10 0 -21 -6 -24 -13z"/>
<path style="fill:#044885;" d="M2164 846 c-5 -22 -11 -25 -37 -23 -42 3 -52 -30 -10 -35 29 -3 30
-7 19 -45 -6 -18 -2 -22 24 -28 17 -4 30 -13 30 -22 0 -11 -6 -14 -26 -9 -78
20 -81 20 -87 -11 -3 -15 -8 -35 -12 -44 -5 -13 4 -19 44 -29 31 -7 51 -17 51
-26 0 -18 -17 -18 -69 1 -38 13 -41 13 -41 -4 0 -14 12 -22 45 -30 28 -7 45
-17 45 -26 0 -19 -11 -19 -57 0 -29 12 -38 13 -45 3 -13 -22 -10 -25 37 -37
30 -7 45 -17 45 -27 0 -14 -9 -15 -60 -9 -50 6 -60 4 -60 -8 0 -20 12 -23 133
-38 97 -11 122 -21 90 -33 -14 -6 -14 -8 5 -22 16 -11 27 -12 41 -4 40 21 104
129 141 235 16 45 20 50 45 48 15 -1 29 -4 31 -5 7 -8 -78 -259 -90 -264 -7
-3 -25 0 -40 6 -24 9 -27 8 -22 -6 3 -8 6 -22 6 -30 0 -21 73 -19 92 4 15 16
113 310 106 317 -2 1 -21 7 -43 12 -37 9 -40 11 -38 43 1 18 7 44 14 57 14 26
12 30 -16 35 -16 2 -22 -6 -34 -50 -14 -53 -15 -54 -46 -48 -27 5 -33 3 -38
-14 -4 -17 0 -22 24 -27 16 -3 29 -9 29 -13 0 -20 -43 -128 -70 -175 -39 -69
-58 -85 -71 -62 -6 9 -21 17 -34 17 -31 0 -55 10 -55 22 0 11 49 6 83 -7 13
-5 17 -2 17 13 0 15 -9 21 -40 26 -31 5 -40 11 -40 26 0 18 2 18 47 5 36 -11
49 -11 54 -3 11 18 1 28 -27 28 -31 0 -64 17 -64 32 0 10 20 8 82 -7 22 -6 26
-2 36 33 17 57 16 59 -30 66 -51 8 -59 13 -52 31 4 10 12 12 31 4 36 -14 40
-12 47 22 5 28 9 30 35 24 21 -4 30 -2 35 10 3 9 0 18 -9 20 -8 3 -22 7 -30
10 -12 4 -14 9 -5 24 7 14 7 22 0 26 -16 10 -40 -2 -40 -20 0 -16 -31 -19 -65
-6 -14 6 -20 17 -20 37 0 38 -32 46 -41 10z m98 -92 c5 -3 8 -12 8 -21 0 -12
-7 -14 -37 -8 -47 9 -53 12 -53 32 0 12 7 14 37 8 21 -4 41 -9 45 -11z m-89
-103 c4 -4 5 -15 2 -23 -10 -25 -59 -8 -63 21 -3 21 -1 23 25 17 15 -4 32 -11
36 -15z m102 -32 c15 -15 -11 -32 -39 -25 -18 4 -26 13 -26 27 0 18 4 20 28
14 15 -3 31 -11 37 -16z"/>
<path style="fill:#044885;" d="M3238 754 c-14 -15 -13 -19 24 -52 37 -33 40 -34 56 -18 16 16 15 19
-20 51 -20 19 -38 35 -40 35 -2 0 -11 -7 -20 -16z"/>
<path style="fill:#044885;" d="M3270 615 c-47 -17 -54 -46 -10 -43 32 3 32 3 61 -86 15 -49 26 -93
23 -98 -6 -9 13 -38 25 -38 12 0 53 109 47 125 -7 19 -26 19 -26 0 0 -39 -21
-7 -46 70 -16 47 -31 84 -34 84 -3 -1 -21 -7 -40 -14z"/>
<path style="fill:#044885;" d="M2822 520 c-45 -42 -15 -120 46 -120 34 0 72 37 72 69 0 29 -43 71
-73 71 -13 0 -33 -9 -45 -20z"/>
</g>
</svg>
