<?xml version="1.0" standalone="no"?>
<!DOCTYPE svg PUBLIC "-//W3C//DTD SVG 20010904//EN"
 "http://www.w3.org/TR/2001/REC-SVG-20010904/DTD/svg10.dtd">
<svg version="1.0" xmlns="http://www.w3.org/2000/svg"
 width="578.000000pt" height="578.000000pt" viewBox="0 0 578.000000 578.000000"
 preserveAspectRatio="xMidYMid meet">
<metadata>
Created by potrace 1.14, written by Peter Selinger 2001-2017
</metadata>
<g transform="translate(0.000000,578.000000) scale(0.100000,-0.100000)"
fill="#000000" stroke="none">
<path d="M2655 5639 c-808 -71 -1536 -480 -2013 -1132 -581 -793 -701 -1828
-316 -2734 355 -836 1114 -1457 2003 -1638 219 -44 383 -58 626 -52 421 11
751 90 1122 267 708 338 1241 958 1468 1706 183 605 154 1261 -82 1847 -308
764 -942 1355 -1732 1613 -329 107 -728 153 -1076 123z m445 -89 c1088 -94
2003 -818 2343 -1855 215 -654 164 -1397 -139 -2008 -150 -302 -317 -532 -555
-762 -207 -200 -420 -350 -674 -475 -308 -151 -581 -231 -905 -266 -182 -19
-488 -14 -665 10 -440 62 -915 264 -1271 542 -177 138 -364 329 -500 510 -442
589 -624 1328 -505 2054 166 1011 901 1849 1881 2144 319 95 673 133 990 106z"/>
<path d="M2860 5414 c0 -5 10 -14 23 -19 14 -6 42 -50 79 -121 56 -110 57
-113 50 -170 -6 -55 -9 -59 -34 -62 -52 -6 -28 -22 31 -22 33 0 66 -3 75 -6 9
-3 16 -2 16 4 0 5 -9 12 -20 15 -17 4 -20 14 -20 68 0 58 4 68 51 143 63 99
96 136 123 137 45 1 -18 18 -69 18 -44 0 -48 -1 -32 -13 9 -7 17 -17 17 -21 0
-13 -91 -155 -98 -155 -8 0 -95 171 -90 175 2 1 12 7 23 13 17 10 12 11 -30
12 -27 0 -60 3 -72 6 -13 4 -23 2 -23 -2z"/>
<path d="M2522 5390 c-40 -9 -53 -20 -25 -20 11 0 26 -6 32 -13 12 -15 51
-194 51 -234 0 -36 -27 -81 -58 -97 -77 -40 -157 -24 -185 37 -11 24 -57 220
-57 243 0 2 10 13 23 25 17 17 18 20 5 16 -10 -4 -40 -9 -68 -13 -50 -7 -80
-24 -42 -24 30 0 37 -17 60 -136 11 -62 28 -124 38 -138 50 -78 202 -78 274
-1 32 34 36 97 14 222 l-18 106 23 18 23 19 -28 -1 c-16 -1 -44 -5 -62 -9z"/>
<path d="M3371 5185 c-57 -91 -109 -166 -115 -166 -6 -1 -14 -1 -18 0 -5 0 -8
-3 -8 -8 0 -5 13 -11 29 -14 16 -3 42 -9 57 -13 l29 -7 -24 20 -24 20 38 61
c21 34 44 62 52 62 8 0 34 -5 58 -11 49 -12 55 -23 55 -111 l0 -57 -32 -3
c-27 -3 -20 -6 42 -22 41 -11 82 -23 90 -28 38 -21 203 -88 216 -88 16 0 74
40 74 51 0 3 -17 -2 -39 -13 l-39 -19 -56 25 c-31 14 -56 29 -56 35 0 16 117
292 129 304 7 7 18 7 36 -1 14 -6 25 -8 25 -4 0 10 -139 66 -147 59 -3 -4 2
-9 11 -13 25 -10 20 -31 -40 -175 -67 -160 -72 -167 -113 -149 -17 6 -35 17
-40 24 -5 6 -17 97 -26 201 -16 180 -22 205 -50 204 -5 0 -57 -74 -114 -164z
m109 61 c0 -18 3 -48 7 -66 l6 -33 -39 7 c-21 4 -43 11 -47 15 -9 9 50 111 64
111 5 0 9 -15 9 -34z"/>
<path d="M1927 5229 c-52 -12 -111 -56 -136 -100 -45 -80 -18 -210 57 -267 30
-23 45 -27 101 -27 36 0 75 6 86 13 17 10 15 11 -19 6 -72 -11 -142 35 -182
121 -45 96 -23 190 53 222 46 19 111 13 147 -13 43 -31 86 -107 93 -162 8 -67
-2 -98 -40 -134 l-32 -31 30 18 c80 45 109 167 63 255 -44 81 -132 121 -221
99z"/>
<path d="M4070 5115 c0 -3 5 -13 11 -23 10 -16 1 -38 -51 -133 -79 -143 -106
-180 -125 -173 -35 14 -10 -13 35 -38 60 -33 64 -34 48 -8 -14 21 -7 35 102
225 42 73 49 80 75 78 16 -1 24 1 19 6 -14 14 -114 71 -114 66z"/>
<path d="M1545 5035 c-51 -37 -75 -67 -37 -46 11 6 23 11 26 11 10 0 86 -109
86 -122 0 -11 -159 -128 -173 -128 -7 0 -72 91 -79 111 -4 9 1 27 9 39 19 26
14 25 -49 -15 -53 -34 -58 -42 -26 -47 16 -2 49 -41 110 -128 84 -121 99 -152
78 -165 -5 -3 -10 -11 -10 -16 0 -5 27 9 60 31 65 44 73 53 38 45 -13 -3 -28
-2 -34 2 -9 7 -57 75 -77 110 -5 7 25 34 80 72 47 34 90 61 94 61 9 0 89 -114
89 -126 0 -4 -10 -19 -22 -32 -13 -14 -18 -23 -13 -21 24 9 125 83 125 91 0 5
-8 4 -18 -1 -25 -13 -30 -8 -97 89 -32 47 -72 104 -88 127 -22 31 -28 48 -23
67 3 14 5 26 4 26 -2 0 -26 -16 -53 -35z"/>
<path d="M4382 4863 c-19 -8 -42 -59 -42 -95 0 -18 7 -58 15 -88 20 -73 19
-114 -2 -132 -28 -24 -47 -27 -80 -13 -42 18 -57 48 -49 102 7 50 -1 50 -27 0
l-18 -34 37 -41 c61 -68 141 -79 184 -25 24 31 26 89 5 159 -21 68 -19 110 5
134 26 26 43 25 76 -3 19 -17 29 -37 33 -68 l6 -44 19 27 c17 27 17 27 -11 63
-43 55 -102 78 -151 58z"/>
<path d="M2614 4844 c-663 -90 -1247 -519 -1534 -1128 -363 -768 -198 -1687
407 -2277 237 -231 485 -381 790 -479 392 -125 839 -123 1228 5 303 100 553
253 781 480 131 130 172 180 263 317 444 668 440 1551 -9 2218 -325 481 -861
807 -1432 869 -130 15 -370 12 -494 -5z m-569 -996 c13 -19 15 -57 15 -236 -1
-118 1 -216 4 -219 3 -3 11 7 18 23 8 19 12 85 13 189 0 88 4 166 8 173 12 18
51 15 70 -6 25 -28 28 -341 4 -397 -22 -49 -50 -80 -87 -95 -26 -11 -28 -15
-34 -108 l-8 -96 29 -21 c83 -60 106 -110 123 -275 14 -142 24 -411 16 -453
-11 -60 -50 -83 -90 -54 -16 12 -18 36 -22 218 -5 208 -18 372 -34 425 -5 18
-8 -136 -7 -402 1 -392 -1 -434 -16 -458 -21 -31 -47 -33 -73 -5 -18 20 -19
46 -24 458 -3 240 -8 428 -12 418 -18 -42 -30 -165 -38 -367 -9 -240 -16 -273
-57 -268 -47 5 -53 33 -53 250 0 342 34 478 129 518 l31 12 0 90 c0 76 -3 89
-17 94 -66 20 -104 46 -125 86 -21 39 -23 57 -24 193 -2 160 1 191 19 216 19
25 53 32 71 14 13 -14 16 -44 17 -178 1 -185 6 -211 37 -215 l22 -3 0 230 c0
218 1 232 20 251 26 26 55 25 75 -2z m-451 -4 c13 -12 16 -42 17 -147 1 -73 4
-175 8 -227 7 -92 7 -94 21 -65 11 22 15 71 15 182 0 142 1 154 21 174 15 15
28 19 43 14 38 -12 45 -42 43 -179 -2 -183 -33 -273 -107 -317 l-35 -21 0 -97
0 -97 41 -39 c82 -79 103 -181 104 -497 0 -202 0 -207 -23 -231 -29 -31 -57
-25 -71 15 -6 17 -11 85 -11 152 0 145 -17 388 -30 419 -5 14 -9 -61 -10 -203
-3 -665 -1 -640 -60 -640 -55 0 -55 -4 -55 462 0 235 -1 428 -2 428 -1 0 -7
-9 -13 -20 -25 -48 -43 -184 -49 -386 -5 -189 -8 -214 -25 -233 -23 -25 -58
-27 -77 -4 -21 24 -18 409 3 520 25 126 56 186 118 224 l51 31 -3 96 -3 96
-29 7 c-110 30 -162 147 -154 347 4 109 19 142 63 142 41 0 48 -22 49 -163 1
-111 4 -138 21 -172 11 -22 28 -42 38 -43 18 -4 18 6 12 221 l-8 226 34 20
c41 25 43 25 63 5z m2591 -47 c14 -32 38 -64 60 -81 111 -85 98 -158 -49 -286
-47 -41 -86 -78 -86 -81 0 -3 75 -34 168 -69 92 -34 175 -70 184 -79 17 -15
17 -18 2 -40 -15 -21 -22 -23 -78 -19 -34 3 -92 15 -131 26 -127 37 -134 37
-145 7 -12 -32 -13 -155 -2 -155 24 0 240 -42 260 -50 29 -13 30 -55 1 -71
-13 -7 -64 -10 -138 -7 l-116 3 0 -98 c0 -76 3 -100 15 -107 8 -5 56 -10 105
-10 98 0 138 -13 143 -46 6 -38 -21 -47 -146 -48 l-117 -1 -3 -97 -3 -96 48
-6 c26 -4 98 -10 160 -15 66 -4 118 -13 127 -21 21 -16 21 -66 1 -74 -9 -3
-72 -1 -140 4 -68 6 -227 11 -354 13 -286 3 -272 10 -281 -145 -3 -57 -9 -109
-13 -115 -12 -20 -52 -15 -72 7 -17 19 -18 39 -11 323 11 489 35 768 72 840
15 29 77 78 131 103 72 35 75 65 12 118 -46 39 -69 41 -137 12 -34 -14 -70
-26 -81 -26 -28 0 -63 32 -56 51 3 9 44 37 92 63 47 27 163 100 257 164 283
192 284 192 321 109z m-1594 -46 c37 -45 52 -120 43 -213 -12 -133 -42 -166
-160 -176 -81 -6 -155 12 -187 46 -64 68 -64 247 0 323 42 49 75 60 182 57 93
-3 93 -3 122 -37z m659 24 c7 -9 18 -41 24 -72 l11 -56 120 -1 120 -1 3 -32
c4 -41 -11 -49 -109 -57 -87 -8 -148 -21 -160 -33 -14 -14 -40 -156 -30 -166
5 -5 57 -13 116 -18 59 -5 119 -15 134 -22 48 -23 48 -45 6 -355 -38 -271 -40
-305 -45 -607 l-5 -320 -23 -3 c-13 -2 -34 4 -47 12 l-25 16 5 306 4 307 -41
-39 c-22 -22 -51 -61 -65 -88 -34 -67 -105 -252 -138 -360 -30 -100 -54 -132
-85 -116 -49 26 -37 90 63 330 106 256 146 329 217 395 34 32 74 101 66 114
-6 9 -123 -11 -169 -28 -49 -19 -118 -14 -144 11 -33 31 -30 64 28 357 39 194
53 288 58 389 5 102 9 135 21 142 23 15 76 12 90 -5z m-708 -513 c76 -25 101
-65 96 -152 -6 -109 -60 -159 -191 -175 -75 -10 -105 -32 -92 -70 8 -23 20
-30 65 -42 76 -19 98 -36 126 -98 40 -87 55 -184 61 -405 6 -233 -1 -286 -42
-296 -62 -15 -75 17 -75 184 0 143 -16 348 -31 405 -12 47 -54 85 -122 113
-66 28 -89 58 -95 129 -6 71 9 106 66 154 44 38 45 40 46 102 l1 64 -68 -4
c-74 -3 -97 7 -97 44 0 34 30 53 100 64 83 12 185 6 252 -17z m-23 -1643 c32
-11 61 -52 61 -87 0 -28 -47 -93 -101 -137 -26 -22 -48 -43 -48 -47 -1 -5 33
-8 74 -8 73 0 75 -1 75 -25 l0 -25 -120 0 -120 0 0 40 c0 25 6 42 16 48 22 13
124 114 136 135 24 46 -24 83 -58 44 -23 -26 -80 -41 -88 -22 -8 21 25 74 53
84 36 13 82 13 120 0z m310 -2 c83 -42 93 -261 14 -312 -65 -43 -149 -13 -174
62 -15 47 -7 160 15 204 26 55 89 75 145 46z m342 -13 c60 -54 45 -109 -54
-199 l-71 -65 82 0 c81 0 82 0 82 -25 l0 -25 -120 0 -120 0 0 36 c0 32 8 44
71 102 71 66 93 99 83 126 -12 32 -59 29 -69 -5 -5 -14 -16 -19 -46 -19 -21 0
-39 2 -39 4 0 23 28 70 49 81 36 21 124 14 152 -11z m299 -149 l0 -165 -40 0
-40 0 0 125 0 126 -30 -16 c-41 -21 -47 -19 -46 15 1 24 10 36 41 55 23 14 56
25 78 25 l37 0 0 -165z"/>
<path d="M3955 3611 c-71 -37 -131 -73 -132 -78 -6 -17 116 -103 146 -103 52
0 211 123 211 163 0 31 -47 87 -73 87 -12 0 -80 -31 -152 -69z"/>
<path d="M3902 3243 c-82 -33 -156 -104 -166 -157 -4 -21 -4 -42 1 -47 11 -11
230 -15 241 -5 9 9 22 195 16 219 -7 22 -16 21 -92 -10z"/>
<path d="M3724 2909 c-13 -17 -25 -161 -15 -177 9 -14 160 -35 222 -30 51 4
56 15 58 119 1 46 -3 70 -13 78 -8 6 -65 14 -128 18 -90 5 -115 3 -124 -8z"/>
<path d="M3696 2592 c-3 -5 -9 -43 -12 -84 -5 -58 -3 -76 8 -85 8 -7 69 -18
137 -24 151 -15 153 -14 156 91 1 39 -3 77 -9 85 -14 19 -269 34 -280 17z"/>
<path d="M2382 3664 c-19 -13 -22 -24 -22 -82 0 -93 14 -112 85 -112 47 0 57
3 71 25 21 32 16 161 -6 175 -24 15 -103 11 -128 -6z"/>
<path d="M3198 3221 c-34 -27 -50 -75 -52 -159 l-1 -67 58 -3 c32 -2 83 2 113
8 63 13 72 26 81 125 4 50 2 64 -15 85 -17 21 -30 25 -88 28 -59 3 -73 1 -96
-17z"/>
<path d="M2469 3184 c-1 -2 -2 -35 -3 -73 l-1 -70 30 19 c56 35 56 112 1 122
-14 3 -27 4 -27 2z"/>
<path d="M2755 1557 c-23 -33 -21 -177 3 -207 23 -29 38 -20 52 28 20 72 6
184 -25 196 -8 3 -21 -4 -30 -17z"/>
<path d="M1067 4646 l-97 -102 30 -29 c16 -16 30 -24 30 -17 0 6 -4 14 -10 17
-22 14 -7 43 57 108 36 37 68 66 70 64 2 -3 18 -96 35 -208 17 -112 34 -207
38 -212 8 -9 225 209 225 227 0 13 -50 76 -61 76 -3 0 1 -11 10 -25 29 -44 21
-66 -59 -145 -41 -41 -76 -72 -79 -69 -3 4 -66 390 -66 410 0 24 -32 -2 -123
-95z"/>
<path d="M4562 4594 c-35 -17 -61 -40 -82 -72 -28 -42 -31 -53 -28 -107 4 -70
40 -131 108 -185 40 -32 42 -32 83 -19 l42 13 -52 6 c-65 7 -101 33 -131 92
-29 57 -23 99 22 166 38 57 103 95 162 95 95 0 175 -116 134 -194 -15 -27 -1
-24 31 7 l27 26 -30 56 c-40 75 -44 79 -103 113 -64 37 -114 38 -183 3z"/>
<path d="M4958 4313 c-3 -24 -22 -39 -128 -104 -151 -91 -155 -92 -175 -73
-25 26 -17 -1 18 -57 30 -49 32 -51 35 -27 4 30 8 35 79 76 l52 31 50 -83 c28
-45 53 -90 56 -98 4 -11 -12 -26 -55 -52 -71 -42 -85 -44 -100 -15 -7 11 -14
18 -17 15 -7 -7 68 -136 79 -136 5 0 4 8 -1 19 -15 27 -1 39 124 113 156 92
151 91 176 77 24 -13 24 -12 -15 59 -33 58 -45 66 -38 23 3 -26 -2 -32 -56
-65 -33 -20 -62 -36 -65 -36 -4 0 -25 33 -48 73 -23 39 -49 82 -56 94 -14 20
-11 23 42 57 58 38 83 44 103 24 7 -7 12 -8 12 -4 0 10 -60 116 -65 116 -2 0
-5 -12 -7 -27z"/>
<path d="M754 4268 c-39 -70 -40 -76 -17 -55 11 9 26 17 35 17 26 0 230 -123
216 -130 -7 -4 -95 -24 -195 -45 l-181 -38 -22 -39 c-23 -40 -21 -45 9 -26 16
10 40 -1 157 -68 124 -71 139 -83 142 -108 4 -29 4 -29 33 20 34 58 37 74 8
48 -20 -18 -22 -18 -82 15 -104 57 -198 113 -194 117 2 2 97 24 212 49 116 26
212 48 214 51 7 6 6 6 -157 99 -150 86 -153 88 -147 116 4 16 5 29 2 29 -2 0
-17 -24 -33 -52z"/>
<path d="M5030 3819 c-43 -18 -92 -61 -106 -95 -41 -99 11 -242 103 -280 18
-8 59 -14 91 -14 75 0 141 39 173 101 47 94 7 223 -86 276 -43 25 -129 30
-175 12z m200 -58 c95 -66 67 -204 -54 -265 -48 -24 -65 -28 -116 -24 -52 4
-66 9 -92 35 -41 41 -50 119 -20 173 20 37 106 96 151 103 43 7 104 -3 131
-22z"/>
<path d="M481 3702 c-38 -111 -53 -176 -29 -124 6 12 20 22 32 22 36 -1 289
-96 300 -113 8 -12 6 -29 -4 -59 -19 -54 -25 -55 -205 -26 -124 21 -141 26
-150 46 -15 34 -22 27 -30 -35 -4 -31 -9 -62 -12 -70 -3 -7 0 -13 6 -13 6 0
11 6 11 14 0 31 26 38 92 25 35 -6 66 -14 70 -18 3 -3 0 -44 -8 -91 -24 -142
-13 -129 -94 -115 -39 7 -72 14 -74 16 -2 2 -8 12 -13 23 -9 16 -11 13 -17
-20 -4 -22 -9 -52 -12 -69 l-5 -30 18 23 19 23 151 -26 c180 -30 183 -31 183
-59 1 -41 17 7 24 69 5 51 4 56 -6 36 -11 -22 -16 -23 -73 -16 -33 4 -68 8
-77 8 -12 1 -18 10 -18 27 0 31 28 191 34 198 3 2 38 -2 78 -9 72 -14 73 -15
79 -49 7 -42 15 -26 23 47 4 28 31 122 61 208 30 86 55 160 55 164 0 5 -18 15
-40 24 l-41 16 26 -31 c14 -17 24 -36 22 -42 -2 -6 -12 -35 -22 -64 -9 -29
-23 -56 -31 -59 -18 -7 -144 39 -144 53 0 6 7 31 16 57 14 42 19 47 47 48 l32
1 -31 13 c-17 8 -44 17 -60 21 -27 6 -28 5 -10 -8 18 -14 18 -16 0 -71 -10
-31 -23 -57 -30 -57 -10 0 -121 38 -132 45 -1 1 8 31 20 66 22 60 25 64 58 69
l35 5 -34 13 c-19 6 -37 12 -41 12 -4 0 -26 -53 -49 -118z"/>
<path d="M5125 3333 c-50 -26 -74 -53 -91 -106 -31 -92 0 -197 71 -246 139
-95 315 -1 315 169 0 40 -38 127 -66 152 -53 47 -170 63 -229 31z m176 -43
c104 -29 132 -154 53 -232 -24 -24 -54 -41 -94 -52 -132 -37 -242 38 -221 151
12 63 41 94 115 125 47 20 96 22 147 8z"/>
<path d="M630 2972 c0 -5 11 -14 25 -20 28 -13 65 -79 65 -118 0 -43 -36 -107
-75 -133 -49 -33 -164 -41 -214 -14 -56 29 -76 65 -76 135 0 56 2 62 38 94 20
19 37 36 37 39 0 3 -17 5 -38 5 l-38 0 -13 -74 c-15 -82 -9 -123 24 -181 51
-88 182 -118 276 -63 56 33 81 80 87 163 6 84 -11 141 -48 160 -32 17 -50 19
-50 7z"/>
<path d="M5048 2873 c-3 -11 -6 -70 -7 -130 l-2 -108 43 -24 43 -24 -33 35
c-31 33 -33 38 -30 99 l3 64 155 -3 c85 -2 163 -6 173 -8 11 -4 17 -15 17 -35
0 -18 4 -28 10 -24 6 3 10 41 10 83 -1 62 -3 73 -12 57 -6 -11 -12 -22 -14
-24 -5 -5 -200 0 -274 7 -58 6 -65 9 -70 32 -6 24 -6 24 -12 3z"/>
<path d="M4472 1528 c-20 -20 -13 -31 55 -83 37 -27 125 -96 196 -153 120 -96
130 -102 143 -85 18 25 18 25 -19 49 -44 29 -334 261 -342 274 -8 13 -18 13
-33 -2z"/>
<path d="M4620 1492 c0 -6 -3 -17 -6 -25 -4 -12 10 -15 73 -20 43 -3 88 -8
100 -12 18 -6 23 -2 29 19 3 15 4 29 2 32 -11 10 -198 17 -198 6z"/>
<path d="M1171 1448 c-36 -13 -81 -19 -143 -19 -76 0 -89 -3 -84 -16 3 -8 6
-19 6 -24 0 -5 24 -9 53 -9 74 0 257 22 257 31 0 14 -23 59 -29 58 -3 -1 -30
-10 -60 -21z"/>
<path d="M4355 1374 c-20 -15 -20 -15 3 -34 13 -11 36 -28 50 -39 l27 -19 -34
-42 c-29 -37 -32 -44 -19 -56 13 -13 18 -10 43 27 l29 41 23 -28 c12 -16 32
-54 44 -84 11 -30 24 -64 29 -75 8 -22 50 -32 50 -12 0 7 -13 40 -30 75 -16
34 -27 62 -24 62 3 0 44 -31 91 -70 47 -38 89 -70 93 -70 4 0 14 7 21 16 11
13 10 17 -4 25 -32 19 -167 129 -167 138 0 5 20 6 45 3 43 -4 45 -4 45 22 0
25 -2 26 -55 26 -41 0 -56 -4 -64 -17 -9 -17 -11 -16 -30 1 -27 24 -26 32 3
71 23 30 23 32 6 43 -16 10 -22 7 -40 -23 -12 -19 -27 -35 -33 -35 -6 0 -27
15 -47 34 -32 32 -37 34 -55 20z"/>
<path d="M1295 1310 c-47 -93 -71 -252 -39 -264 38 -15 42 -8 46 87 4 75 9
102 32 145 15 30 26 55 24 56 -2 1 -11 7 -20 15 -15 11 -20 6 -43 -39z"/>
<path d="M1060 1279 c-38 -11 -94 -18 -134 -17 -55 1 -71 -2 -82 -16 -11 -16
0 -29 93 -119 97 -94 105 -104 100 -133 -4 -26 -1 -33 19 -43 28 -13 28 -12
62 107 20 70 20 72 2 82 -27 14 -26 15 -40 -35 -7 -25 -16 -45 -19 -45 -4 0
-38 32 -76 70 -52 52 -67 73 -57 79 13 8 138 23 205 25 27 1 34 16 21 50 -7
19 -10 19 -94 -5z"/>
<path d="M4143 930 c-54 -22 -65 -93 -20 -125 76 -53 153 51 83 112 -30 25
-31 26 -63 13z"/>
<path d="M1616 885 c-56 -57 9 -152 79 -115 41 22 49 77 18 113 -20 21 -76 22
-97 2z"/>
<path d="M3580 885 c-11 -14 -10 -19 8 -38 20 -19 24 -20 37 -6 14 14 13 17
-8 37 -22 20 -25 21 -37 7z"/>
<path d="M3484 867 c-2 -7 2 -30 11 -50 8 -20 15 -39 15 -41 0 -3 -33 -15 -72
-27 -40 -11 -74 -22 -76 -24 -2 -1 13 -49 32 -105 40 -112 47 -161 21 -140
-13 11 -18 10 -29 -5 -11 -16 -16 -8 -41 69 -15 47 -28 86 -29 86 -22 -3 -87
-28 -87 -33 1 -4 1 -12 1 -18 0 -6 11 -8 29 -4 29 6 29 6 60 -86 17 -50 28
-96 25 -101 -6 -10 13 -38 26 -38 4 0 18 25 30 55 28 68 45 72 35 9 -3 -26 -9
-53 -12 -61 -4 -11 1 -14 23 -11 28 3 29 5 32 66 2 34 -4 90 -13 123 -16 66
-14 79 15 79 13 0 23 -14 34 -47 21 -60 20 -72 -3 -81 -17 -6 -18 -10 -7 -30
l12 -23 27 21 c15 12 27 30 27 41 0 30 -43 169 -52 169 -5 0 -24 -7 -43 -14
-32 -14 -36 -13 -45 4 -23 42 -5 61 70 76 23 5 29 -2 78 -99 58 -115 58 -125
7 -193 -21 -27 -22 -33 -9 -38 30 -12 39 -6 67 44 l28 49 36 -25 c22 -14 48
-24 63 -22 21 3 25 9 28 42 3 39 -8 56 -36 56 -9 0 -11 -7 -7 -19 9 -31 -11
-33 -43 -6 -32 27 -33 40 -17 173 3 29 2 32 -25 32 l-28 0 5 -62 c4 -60 3 -62
-12 -43 -27 33 -67 116 -62 129 3 7 26 19 51 26 50 14 64 26 48 42 -7 7 -26 5
-61 -7 -28 -9 -55 -14 -61 -10 -5 3 -13 24 -16 46 -5 29 -11 39 -26 39 -10 0
-21 -6 -24 -13z"/>
<path d="M2167 864 c-4 -4 -7 -15 -7 -25 0 -15 -6 -17 -35 -12 -31 5 -35 3
-35 -15 0 -15 7 -22 28 -24 28 -3 29 -7 18 -45 -6 -18 -2 -22 24 -28 16 -4 30
-13 30 -21 0 -18 -7 -18 -59 1 -32 11 -43 12 -46 2 -2 -7 -8 -27 -14 -46 -11
-35 -4 -50 26 -51 6 0 24 -5 39 -10 20 -8 24 -14 16 -22 -7 -7 -23 -6 -55 5
-43 14 -45 14 -50 -3 -4 -15 2 -20 27 -25 56 -11 66 -16 66 -31 0 -15 -36 -11
-74 8 -13 7 -21 6 -27 -3 -14 -23 -11 -26 36 -38 28 -7 45 -17 45 -26 0 -17
-18 -18 -73 -6 -31 7 -39 6 -44 -6 -9 -23 10 -30 116 -43 89 -11 154 -29 109
-30 -24 0 -23 -12 3 -28 27 -17 57 1 97 60 33 48 92 178 92 202 0 8 4 17 10
21 15 9 59 -6 55 -18 -51 -164 -78 -244 -85 -251 -5 -5 -22 -4 -40 3 -28 9
-31 9 -26 -5 3 -9 6 -22 6 -30 0 -15 53 -20 84 -8 13 5 116 290 116 322 0 5
-20 15 -45 21 -50 13 -53 20 -29 81 18 45 18 45 -13 54 -19 6 -23 1 -34 -49
-12 -56 -13 -57 -45 -51 -24 5 -33 2 -38 -10 -9 -22 1 -34 30 -34 13 0 24 -1
24 -2 0 -9 -30 -98 -41 -123 -19 -45 -80 -135 -90 -135 -5 0 -9 7 -9 15 0 9
-9 15 -22 15 -35 0 -68 11 -68 22 0 10 24 7 78 -8 18 -5 22 -2 22 14 0 16 -9
22 -40 27 -30 5 -40 11 -40 25 0 18 3 18 47 5 25 -8 50 -12 55 -9 18 12 0 28
-42 38 -24 6 -46 17 -48 25 -5 14 -3 14 84 -6 18 -4 23 2 34 41 7 26 11 48 9
50 -2 1 -24 7 -49 12 -50 10 -53 30 -4 27 28 -2 32 2 38 27 5 29 28 40 41 20
10 -16 22 -12 28 11 3 12 0 22 -9 25 -8 2 -21 6 -29 9 -12 4 -13 9 -6 24 14
25 -15 54 -30 30 -5 -8 -9 -20 -9 -26 0 -14 -20 -15 -60 -4 -19 5 -25 14 -25
36 0 29 -22 45 -38 29z m95 -110 c13 -8 9 -34 -6 -34 -29 0 -76 23 -76 37 0
12 8 14 37 8 21 -4 41 -9 45 -11z m-106 -94 c8 0 14 -9 14 -20 0 -11 -6 -20
-14 -20 -28 0 -46 12 -46 32 0 14 5 18 16 14 9 -3 22 -6 30 -6z m119 -41 c16
-15 -10 -31 -39 -23 -25 6 -34 23 -19 37 8 8 43 -1 58 -14z"/>
<path d="M3237 752 c-15 -16 -13 -20 25 -51 37 -31 41 -32 56 -17 15 15 13 19
-18 51 -39 40 -41 41 -63 17z"/>
<path d="M2820 520 c-43 -43 -11 -120 50 -120 64 0 94 80 44 119 -34 26 -68
27 -94 1z"/>
</g>
</svg>
